<svg width="14" height="15" viewBox="0 0 14 15" xmlns="http://www.w3.org/2000/svg">
    <path d="M0.4375 5.125C0.191406 5.125 0 4.93359 0 4.6875C0 4.46875 0.191406 4.25 0.4375 4.25H12.4961L9.73438 1.51562C9.57031 1.35156 9.57031 1.05078 9.73438 0.886719C9.89844 0.722656 10.1992 0.722656 10.3633 0.886719L13.8633 4.38672C13.9453 4.46875 14 4.57812 14 4.6875C14 4.82422 13.9453 4.93359 13.8633 5.01562L10.3633 8.51562C10.1992 8.67969 9.89844 8.67969 9.73438 8.51562C9.57031 8.35156 9.57031 8.05078 9.73438 7.88672L12.4961 5.125H0.4375ZM13.5625 10.375C13.7812 10.375 14 10.5938 14 10.8125C14 11.0586 13.7812 11.25 13.5625 11.25H1.47656L4.23828 14.0117C4.40234 14.1758 4.40234 14.4766 4.23828 14.6406C4.07422 14.8047 3.77344 14.8047 3.60938 14.6406L0.109375 11.1406C0.0273438 11.0586 0 10.9492 0 10.8125C0 10.7031 0.0273438 10.5938 0.109375 10.5117L3.60938 7.01172C3.77344 6.84766 4.07422 6.84766 4.23828 7.01172C4.40234 7.17578 4.40234 7.47656 4.23828 7.64062L1.47656 10.375H13.5625Z"></path>
</svg>