<svg class="currency-symbol" xmlns="http://www.w3.org/2000/svg" version="1.1" viewBox="0 0 1040 1164" width=" 17 " height=" 17 "> <path transform="translate(487)" d="m0 0h2v563l26-6 93-20h3v-371l3-6 13-14 7-8 19-19 8-7 14-12 19-14 21-14 18-11h1v450l16-4 221-47 66-14h3l-1 14-7 36-7 28-11 33-8 19-3 3-150 32-85 18-32 7h-2v125l16-4 264-56 23-5h3v9l-8 41-7 28-10 30-9 22-4 3-26 6-344 73-20 4-1-13v-222l1-15-36 8-85 18h-2v145l-3 14-8 16-21 31-22 33-15 22-11 15-7 8-8 7-10 7-17 9-16 5-55 12-292 62h-4v-7l6-35 7-30 12-36 9-22 4-3 131-28 184-39 13-3 1-157-22 5-283 60h-5l5-34 6-27 8-28 9-25 7-17 9-3 75-16 188-40 2-1v-483l3-6 11-12 7-8 20-20 8-7 13-11 14-11 20-14 16-10z"></path> <path transform="translate(1038,946)" d="m0 0h2l-1 14-8 41-8 30-9 26-9 21-18 5-335 71-36 8h-4v-8l6-36 6-25 6-20 8-23 8-19 7-3 93-20 250-53z"></path> </svg>