<svg width="19" height="17" viewBox="0 0 20 18" xmlns="http://www.w3.org/2000/svg">
    <path d="M9.73861 1.48886C12.026 -0.564802 15.5607 -0.496639 17.7644 1.71088C19.967 3.91938 20.043 7.43661 17.9942 9.7308L9.73667 18L1.4811 9.7308C-0.567698 7.43661 -0.490771 3.91354 1.71091 1.71088C3.91648 -0.493718 7.44443 -0.567724 9.73861 1.48886V1.48886ZM16.3855 3.08681C14.9249 1.62422 12.5684 1.56482 11.0396 2.93783L9.73959 4.10439L8.43864 2.9388C6.90496 1.56384 4.55332 1.62422 3.08878 3.08876C1.63788 4.53967 1.56484 6.86209 2.90182 8.39674L9.73764 15.2433L16.5735 8.39772C17.9114 6.86209 17.8384 4.54259 16.3855 3.08681V3.08681Z"></path>
</svg>